# xmcd
#
# Track frame offsets: 
#        150
#        12780
#        26860
#        41910
#        58100
#        76807
#        88835
#        102812
#        119200
#        134747
#        148945
#        161920
#
# Disc length: 2390 seconds
#
# Revision: 0
# Processed by: cddbd v1.5.2PL0 Copyright (c) Steve Scherf et al.
# Submitted via: ExactAudioCopyFreeDBPlugin 1.0
#
DISCID=b309540c
DTITLE=Lauren Cook and Sierra - Lauren Cook and Sierra
DYEAR=1997
DGENRE=Country
TTITLE0=Leave Your Heartache With Me
TTITLE1=HonkyTonk Cafe
TTITLE2=Angel in My Heart
TTITLE3=It's Not What You Say, It's What You Do
TTITLE4=One Heart
TTITLE5=Tell Me A Story
TTITLE6=With A Little Love
TTITLE7=You Lied
TTITLE8=I Will, I Won't
TTITLE9=Cold As You
TTITLE10=Take Me in Your Heart Tonight
TTITLE11=Precious Thing
EXTD=
EXTT0=
EXTT1=
EXTT2=
EXTT3=
EXTT4=
EXTT5=
EXTT6=
EXTT7=
EXTT8=
EXTT9=
EXTT10=
EXTT11=
PLAYORDER=
